<svg height="1500" viewBox="0 0 1500 1500" width="1500" xmlns="http://www.w3.org/2000/svg"><path d="M1348.308 561.669H151.692c-13.432 0-24.321 10.889-24.321 24.321v328.02c0 13.432 10.889 24.321 24.321 24.321h1196.616c13.432 0 24.321-10.889 24.321-24.321V585.99c0-13.432-10.889-24.321-24.321-24.321z" fill="#fff"/><path d="M1348.308 940.358H151.692c-14.528 0-26.348-11.82-26.348-26.348V585.99c0-14.528 11.82-26.348 26.348-26.348h1196.617c14.528 0 26.348 11.819 26.348 26.348v328.02c-.001 14.528-11.821 26.348-26.349 26.348zM151.692 563.696c-12.293 0-22.294 10.001-22.294 22.294v328.02c0 12.293 10.001 22.294 22.294 22.294h1196.617c12.293 0 22.294-10.001 22.294-22.294V585.99c0-12.293-10.001-22.294-22.294-22.294z" fill="#231f20"/><circle cx="190.997" cy="614.591" fill="#231f20" r="16.721"/><path d="M190.997 633.339c-10.338 0-18.748-8.41-18.748-18.748s8.41-18.748 18.748-18.748 18.748 8.41 18.748 18.748-8.41 18.748-18.748 18.748zm0-33.443c-8.103 0-14.695 6.592-14.695 14.694 0 8.103 6.592 14.695 14.695 14.695s14.694-6.592 14.694-14.695c0-8.102-6.591-14.694-14.694-14.694z" fill="#231f20"/><circle cx="248.78" cy="614.591" fill="#231f20" r="16.721"/><path d="M248.78 633.339c-10.338 0-18.748-8.41-18.748-18.748s8.41-18.748 18.748-18.748 18.748 8.41 18.748 18.748-8.41 18.748-18.748 18.748zm0-33.443c-8.103 0-14.694 6.592-14.694 14.694 0 8.103 6.592 14.695 14.694 14.695 8.103 0 14.694-6.592 14.694-14.695 0-8.102-6.591-14.694-14.694-14.694z" fill="#231f20"/><circle cx="306.563" cy="614.591" fill="#231f20" r="16.721"/><path d="M306.563 633.339c-10.338 0-18.748-8.41-18.748-18.748s8.41-18.748 18.748-18.748 18.748 8.41 18.748 18.748-8.41 18.748-18.748 18.748zm0-33.443c-8.103 0-14.694 6.592-14.694 14.694 0 8.103 6.592 14.695 14.694 14.695 8.103 0 14.695-6.592 14.695-14.695 0-8.102-6.592-14.694-14.695-14.694z" fill="#231f20"/><path d="M708.255 483.985c18.554-32.136 64.937-32.136 83.491 0l139.669 241.913 139.668 241.913c18.554 32.136-4.638 72.305-41.745 72.305H470.663c-37.107 0-60.299-40.17-41.745-72.305l139.668-241.913z" fill="#fff"/><path d="M1029.337 1042.143H470.663c-18.159 0-34.421-9.389-43.5-25.115-9.08-15.726-9.08-34.504 0-50.23L706.5 482.972c9.08-15.726 25.341-25.115 43.5-25.115s34.421 9.389 43.5 25.115l279.337 483.826c9.08 15.726 9.08 34.504 0 50.23-9.079 15.726-25.341 25.115-43.5 25.115zM708.255 483.985l1.755 1.013-279.337 483.827c-8.347 14.457-8.347 31.719 0 46.177 8.347 14.457 23.297 23.088 39.99 23.088h558.674c16.694 0 31.644-8.631 39.99-23.088 8.347-14.457 8.347-31.719 0-46.177L789.99 484.999c-8.347-14.457-23.296-23.088-39.99-23.088s-31.643 8.631-39.99 23.088z" fill="#231f20"/><path d="M470.663 1011.082c-9.988 0-14.937-6.703-16.6-9.585-1.664-2.882-4.995-10.518-.001-19.169l279.337-483.826c4.995-8.651 13.273-9.585 16.601-9.585s11.606.934 16.601 9.585l279.337 483.826c4.994 8.651 1.663 16.287 0 19.169-1.664 2.882-6.612 9.585-16.601 9.585z" fill="#fff"/><g fill="#231f20"><path d="M1029.337 1013.109H470.663c-11.045 0-16.516-7.411-18.355-10.598-1.84-3.186-5.524-11.629-.001-21.196l279.337-483.826c5.523-9.565 14.677-10.598 18.356-10.598s12.833 1.032 18.356 10.598l279.337 483.826c5.522 9.565 1.84 18.009 0 21.196s-7.313 10.598-18.356 10.598zM750 490.945c-2.976 0-10.379.835-14.846 8.571L455.817 983.342c-4.466 7.737-1.487 14.565.001 17.142 1.488 2.578 5.912 8.572 14.845 8.572h558.674c8.932 0 13.358-5.994 14.846-8.572 1.488-2.577 4.466-9.407 0-17.142L764.846 499.516c-4.467-7.736-11.87-8.571-14.846-8.571z"/><path d="M754.999 850.131c-1.624 4.773-8.374 4.773-9.998 0l-24.895-73.155-27.518-80.864c-1.166-3.425 1.381-6.982 4.999-6.982h104.827c3.618 0 6.165 3.557 4.999 6.982l-27.518 80.864z"/><path d="M750 855.737c-3.179 0-5.894-1.944-6.918-4.953l-52.414-154.019c-.769-2.259-.413-4.668.976-6.608s3.555-3.053 5.942-3.053h104.828c2.386 0 4.552 1.113 5.941 3.053s1.745 4.349.977 6.608l-52.414 154.019c-1.024 3.009-3.74 4.953-6.918 4.953zm-52.414-164.58a3.22 3.22 0 0 0-2.646 1.36 3.22 3.22 0 0 0-.435 2.942l52.414 154.019c.553 1.626 1.954 2.206 3.081 2.206s2.527-.579 3.08-2.206l52.414-154.019c.342-1.006.184-2.079-.435-2.943s-1.583-1.359-2.646-1.359z"/><circle cx="750" cy="910.254" r="31.837"/><path d="M750 944.118c-18.672 0-33.864-15.191-33.864-33.864 0-18.672 15.191-33.863 33.864-33.863s33.864 15.191 33.864 33.863-15.192 33.864-33.864 33.864zm0-63.674c-16.437 0-29.81 13.373-29.81 29.81s13.373 29.81 29.81 29.81 29.81-13.373 29.81-29.81-13.373-29.81-29.81-29.81zM403.601 559.642h167.476v4.054H403.601z"/><path d="M485.312 477.932h4.054v167.476h-4.054z"/><path d="m488.957 646.628-3.237-2.44c.275-.365 27.504-37.047 27.504-82.518s-27.229-82.153-27.504-82.518l3.237-2.44c.283.375 28.321 38.094 28.321 84.958 0 46.863-28.038 84.582-28.321 84.958z"/><path d="M487.338 647.434c-47.291 0-85.765-38.474-85.765-85.765s38.474-85.765 85.765-85.765 85.765 38.474 85.765 85.765-38.474 85.765-85.765 85.765zm0-167.476c-45.056 0-81.711 36.655-81.711 81.711s36.655 81.711 81.711 81.711 81.711-36.656 81.711-81.711-36.655-81.711-81.711-81.711z"/><path d="m487.981 647.329-1.288-3.843c.137-.046 13.829-4.743 27.311-17.158 18.003-16.579 27.132-38.333 27.132-64.658 0-62.871-53.897-81.634-54.441-81.816l1.286-3.844c.587.196 14.528 4.956 28.64 17.901 13.033 11.956 28.569 33.416 28.569 67.759s-15.536 55.804-28.569 67.759c-14.112 12.944-28.053 17.704-28.64 17.9z"/><path d="M485.72 646.628c-.283-.376-28.321-38.094-28.321-84.958s28.038-84.583 28.321-84.958l3.237 2.44c-.275.365-27.504 37.047-27.504 82.518 0 45.522 27.229 82.153 27.504 82.518z"/><path d="M486.695 647.329c-.587-.196-14.528-4.956-28.64-17.901-13.033-11.956-28.569-33.416-28.569-67.759s15.536-55.803 28.569-67.759c14.112-12.945 28.053-17.705 28.64-17.901l1.288 3.843c-.137.046-13.829 4.743-27.311 17.158-18.003 16.579-27.132 38.333-27.132 64.658 0 62.871 53.897 81.634 54.441 81.816z"/><path d="M561.429 601.036c-8.289-3.56-32.101-11.838-74.091-11.838-41.988 0-65.801 8.278-74.09 11.838l-1.599-3.725c8.519-3.658 32.949-12.167 75.689-12.167 42.742 0 67.171 8.509 75.69 12.167zm-128.337 25.515-1.728-3.667c9.515-4.483 26.949-9.827 55.974-9.827 28.861 0 46.257 5.292 55.769 9.73l-1.714 3.673c-9.139-4.266-25.936-9.35-54.054-9.35-28.275.001-45.106 5.134-54.247 9.441zm54.246-88.357c-42.74 0-67.17-8.509-75.689-12.167l1.599-3.725c8.289 3.559 32.102 11.838 74.09 11.838 41.99 0 65.802-8.279 74.091-11.838l1.6 3.725c-8.519 3.658-32.948 12.167-75.691 12.167zm0-27.912c-29.024 0-46.459-5.344-55.974-9.827l1.728-3.667c9.141 4.307 25.972 9.44 54.246 9.44 28.119 0 44.915-5.085 54.054-9.35l1.714 3.673c-9.51 4.439-26.906 9.731-55.768 9.731z"/></g><circle cx="1151.538" cy="1053.67" fill="#fff" r="61.23"/><path d="M1151.538 1116.927c-34.88 0-63.257-28.377-63.257-63.257s28.377-63.257 63.257-63.257 63.257 28.377 63.257 63.257-28.377 63.257-63.257 63.257zm0-122.46c-32.645 0-59.203 26.558-59.203 59.203s26.558 59.203 59.203 59.203 59.203-26.558 59.203-59.203-26.558-59.203-59.203-59.203z" fill="#231f20"/><path d="m1182.081 1108.218-3.987-.734c.021-.115 2.086-11.68-.318-23.847-3.135-15.87-12.087-25.282-26.609-27.975l.739-3.985c38.805 7.194 30.266 56.048 30.175 56.541z" fill="#231f20"/><path d="M1211.42 1057.578c-.089-.076-9.072-7.646-20.811-11.648-15.311-5.22-27.938-2.173-37.531 9.057l-3.082-2.633c25.633-30.008 63.671 1.814 64.052 2.139z" fill="#231f20"/><path d="M1149.627 1054.347c-13.171-37.202 33.407-54.234 33.879-54.402l1.358 3.819c-.11.039-11.158 4.034-20.493 12.198-12.177 10.65-15.852 23.109-10.922 37.031z" fill="#231f20"/><path d="M1151.168 1055.663c-38.804-7.194-30.265-56.048-30.174-56.541l3.987.734c-.021.115-2.086 11.68.318 23.847 3.135 15.87 12.087 25.282 26.609 27.975z" fill="#231f20"/><path d="M1126.309 1067.858c-19.347 0-37.024-14.789-37.283-15.01l2.629-3.086c.089.076 9.072 7.646 20.811 11.648 15.311 5.221 27.938 2.173 37.531-9.057l3.082 2.633c-8.2 9.6-17.67 12.872-26.77 12.872z" fill="#231f20"/><path d="m1119.57 1107.395-1.358-3.819c.11-.039 11.158-4.034 20.493-12.198 12.177-10.65 15.851-23.109 10.922-37.031l3.821-1.353c13.172 37.202-33.406 54.234-33.878 54.401zm-314.24 24.998 6.528 16.965 16.964 6.528-16.964 6.528-6.528 16.965-6.535-16.959-16.958-6.534 16.964-6.528zM380.108 747.927l6.528 16.965 16.965 6.528-16.965 6.528-6.528 16.965-6.535-16.958-16.958-6.535 16.965-6.528zm-80.317-354.079 6.529 16.965 16.964 6.528-16.964 6.528-6.529 16.965-6.534-16.959-16.958-6.534 16.964-6.528zm653.181-73.227 6.528 16.965 16.965 6.528-16.965 6.528-6.528 16.965-6.535-16.958-16.958-6.535 16.965-6.528zm-646.409 704.628 6.528 16.965 16.965 6.528-16.965 6.528-6.528 16.965-6.534-16.959-16.959-6.534 16.965-6.528zm584.713-538.358h386.639v4.054H891.276z" fill="#231f20"/><path d="m1217.756 533.276-3.899-1.108c.132-.464 3.335-11.503 12.828-22.662 6.614-7.775 17.336-16.674 33.535-20.588-16.199-3.914-26.921-12.813-33.535-20.588-9.493-11.158-12.696-22.197-12.828-22.662l3.9-1.106c.03.104 3.148 10.773 12.122 21.266 11.953 13.976 28.115 21.062 48.036 21.062v4.054c-19.922 0-36.083 7.086-48.036 21.062-8.974 10.495-12.092 21.163-12.123 21.27zm-109.667 252.57 6.528 16.964 16.965 6.528-16.965 6.529-6.528 16.964-6.535-16.958-16.958-6.535 16.965-6.528zm146.333-143.702 6.529 16.965 16.964 6.528-16.964 6.528-6.529 16.965-6.534-16.958-16.958-6.535 16.964-6.528z" fill="#231f20"/></svg>