<svg height="1500" viewBox="0 0 1500 1500" width="1500" xmlns="http://www.w3.org/2000/svg"><path d="M868.048 917.973h340.458v324.44H868.048z" fill="#fff"/><path d="M1209.784 1243.692H866.769V916.695h343.015zm-340.458-2.557h337.901V919.252H869.326z" fill="#1e293b"/><path d="M1208.506 917.973h142.753v324.44h-142.753z" fill="#1e293b"/><path d="M1352.537 1243.692h-145.31V916.695h145.31zm-142.753-2.557h140.197V919.252h-140.197z" fill="#1e293b"/><ellipse cx="1260.873" cy="973.095" fill="#fff" rx="14.316" ry="20.519"/><path d="M1260.873 994.892c-8.598 0-15.594-9.778-15.594-21.798 0-12.019 6.996-21.797 15.594-21.797 8.599 0 15.594 9.778 15.594 21.797 0 12.02-6.995 21.798-15.594 21.798zm0-41.038c-7.189 0-13.037 8.631-13.037 19.24s5.848 19.241 13.037 19.241 13.038-8.632 13.038-19.241-5.849-19.24-13.038-19.24z" fill="#fff"/><path d="m1116.94 1123.504 49.305-19.588 8.338 20.985-49.306 19.589z" fill="#1e293b"/><path d="m1124.641 1146.153-9.282-23.362 51.684-20.535 9.282 23.362zm-5.963-21.931 7.394 18.61 46.933-18.646-7.394-18.61zm-250.63 118.191H150.079l543.064-696.742 245.624 109.016z" fill="#1e293b"/><path d="M869.181 1243.692H147.462l1.609-2.064 543.678-697.529.913.405 246.487 109.398zm-716.484-2.557h714.217l70.471-585.663-243.848-108.227z" fill="#1e293b"/><path d="M693.143 545.671c30.104-67.827 109.493-98.408 177.32-68.304s98.408 109.493 68.304 177.32z" fill="#fff"/><path d="M938.766 655.965a1.27 1.27 0 0 1-.518-.11L692.625 546.839a1.279 1.279 0 0 1-.65-1.687c14.698-33.116 41.413-58.526 75.223-71.551 33.81-13.024 70.667-12.103 103.784 2.598 33.116 14.697 58.526 41.412 71.55 75.222 13.023 33.81 12.102 70.668-2.597 103.784-.212.477-.679.76-1.169.76zm-243.93-110.941 243.276 107.974c13.927-32.188 14.659-67.883 2.035-100.657-12.778-33.173-37.709-59.384-70.202-73.805s-68.656-15.327-101.828-2.548c-32.774 12.625-58.754 37.115-73.281 69.036z" fill="#1e293b"/><path d="m856.91 455.132 111.473-111.401 28.331 29.169-111.43 111.318z" fill="#fff"/><path d="m885.272 486.036-30.159-30.916 113.284-113.209 30.113 31.003zm-26.566-30.893 26.589 27.256 109.624-109.513-26.55-27.335z" fill="#1e293b"/><path d="M1250.308 563.216 993.129 343.731l-26.858 30.816 256.299 218.502z" fill="#fff"/><path d="m1222.673 594.816-.932-.794-257.282-219.341 28.538-32.744.962.821 258.193 220.352zM968.084 374.412l254.384 216.871 25.996-27.96-255.202-217.798z" fill="#1e293b"/><path d="m1138.539 891.293 116.784-308.075-39.885-13.17-117.874 313.484z" fill="#fff"/><path d="m1139.355 892.749-43.522-8.243 118.84-316.057 42.319 13.974zm-40.059-10.189 38.428 7.278 115.931-305.826-37.453-12.366z" fill="#1e293b"/><path d="M1291.48 917.973H966.271v-2.607c0-24.61 19.951-44.561 44.561-44.561h236.087c24.61 0 44.561 19.951 44.561 44.561z" fill="#fff"/><path d="M1292.759 919.252H964.993v-3.885c0-25.276 20.563-45.84 45.839-45.84h236.087c25.276 0 45.839 20.563 45.839 45.84v3.885zm-325.209-2.557h322.652v-1.328c0-23.866-19.417-43.283-43.283-43.283h-236.087c-23.866 0-43.283 19.417-43.283 43.283v1.328z" fill="#1e293b"/><path d="M1027.893 855.878h14.928v14.928h-14.928z" fill="#fff"/><path d="M1044.099 872.084h-17.484V854.6h17.484zm-14.927-2.557h12.371v-12.371h-12.371z" fill="#1e293b"/><circle cx="1228.993" cy="576.638" fill="#fff" r="47.137"/><path d="M1228.994 625.053c-26.697 0-48.416-21.72-48.416-48.416s21.719-48.415 48.416-48.415c26.696 0 48.416 21.719 48.416 48.415s-21.72 48.416-48.416 48.416zm0-94.274c-25.287 0-45.859 20.572-45.859 45.858 0 25.287 20.572 45.859 45.859 45.859s45.859-20.572 45.859-45.859c-.001-25.286-20.573-45.858-45.859-45.858z" fill="#1e293b"/><circle cx="1228.993" cy="576.638" fill="#1e293b" r="20.487"/><path d="M1228.994 598.403c-12.002 0-21.766-9.764-21.766-21.766s9.764-21.766 21.766-21.766c12.001 0 21.766 9.764 21.766 21.766s-9.765 21.766-21.766 21.766zm0-40.975c-10.592 0-19.209 8.617-19.209 19.209s8.617 19.209 19.209 19.209 19.209-8.617 19.209-19.209-8.618-19.209-19.209-19.209z" fill="#1e293b"/><circle cx="980.756" cy="360.058" fill="#fff" r="47.137"/><path d="M980.756 408.473c-26.697 0-48.416-21.719-48.416-48.415s21.719-48.416 48.416-48.416c26.696 0 48.416 21.72 48.416 48.416s-21.72 48.415-48.416 48.415zm0-94.274c-25.287 0-45.859 20.572-45.859 45.859 0 25.286 20.572 45.858 45.859 45.858s45.859-20.572 45.859-45.858c0-25.287-20.572-45.859-45.859-45.859z" fill="#1e293b"/><circle cx="980.756" cy="360.058" fill="#1e293b" r="20.487"/><path d="M980.756 381.824c-12.002 0-21.766-9.764-21.766-21.766s9.764-21.766 21.766-21.766c12.001 0 21.766 9.764 21.766 21.766s-9.764 21.766-21.766 21.766zm0-40.975c-10.592 0-19.209 8.617-19.209 19.209s8.617 19.209 19.209 19.209 19.209-8.617 19.209-19.209-8.617-19.209-19.209-19.209z" fill="#1e293b"/><circle cx="872.97" cy="467.844" fill="#fff" r="47.137"/><path d="M872.97 516.26c-26.696 0-48.416-21.72-48.416-48.416s21.719-48.416 48.416-48.416 48.416 21.72 48.416 48.416-21.72 48.416-48.416 48.416zm0-94.275c-25.287 0-45.859 20.572-45.859 45.859s20.572 45.859 45.859 45.859 45.859-20.572 45.859-45.859-20.573-45.859-45.859-45.859z" fill="#1e293b"/><circle cx="872.97" cy="467.844" fill="#1e293b" r="20.487"/><path d="M872.97 489.61c-12.001 0-21.766-9.764-21.766-21.766s9.764-21.766 21.766-21.766 21.766 9.764 21.766 21.766-9.765 21.766-21.766 21.766zm0-40.975c-10.592 0-19.209 8.617-19.209 19.209s8.617 19.209 19.209 19.209 19.209-8.617 19.209-19.209-8.618-19.209-19.209-19.209zm198.09 410.043h115.633v12.128H1071.06z" fill="#1e293b"/><path d="M1187.971 872.084h-118.189V857.4h118.189zm-115.633-2.557h113.076v-9.57h-113.076z" fill="#1e293b"/><path d="M673.058 983.413h179.424v259H673.058z" fill="#fff"/><path d="M853.761 1243.692H671.78V982.135h181.98v261.557zm-179.424-2.557h176.867V984.692H674.337z" fill="#1e293b"/><path d="M852.482 983.413h206.323v259H852.482z" fill="#1e293b"/><path d="M1060.084 1243.692h-208.88V982.135h208.88zm-206.323-2.557h203.767V984.692H853.761z" fill="#1e293b"/><ellipse cx="817.032" cy="1084.683" fill="#1e293b" rx="14.316" ry="20.519"/><path d="M817.032 1106.481c-8.599 0-15.594-9.778-15.594-21.798 0-12.019 6.996-21.797 15.594-21.797s15.594 9.778 15.594 21.797c0 12.02-6.996 21.798-15.594 21.798zm0-41.038c-7.189 0-13.038 8.631-13.038 19.24s5.849 19.241 13.038 19.241 13.037-8.632 13.037-19.241-5.848-19.24-13.037-19.24z" fill="#1e293b"/><path d="M970.549 1194.945h57.344v26.138h-57.344z" fill="#fff"/><path d="M1029.172 1222.361H969.27v-28.694h59.901v28.694zm-57.345-2.557h54.788v-23.581h-54.788zm-102.501-236.39h-2.557v-66.719h32.442v2.557h-29.885z" fill="#fff"/><path d="M855.569 982.135h38.59v2.557h-38.59z" fill="#fff"/><path d="m318.161 777.305 5.046 13.114 13.114 5.047-13.114 5.046-5.046 13.114-5.052-13.109L300 795.466l13.114-5.047zm48.676-520.996 5.046 13.114 13.115 5.046-13.115 5.047-5.046 13.114-5.051-13.11-13.11-5.051 13.115-5.046zm262.052 112.425 5.046 13.114 13.114 5.047-13.114 5.046-5.046 13.114-5.052-13.109-13.109-5.051 13.114-5.047zm442.171 285.953 5.046 13.114 13.114 5.047-13.114 5.046-5.046 13.114-5.052-13.109-13.109-5.051 13.114-5.047zm193.658-380.218 5.046 13.114 13.115 5.047-13.115 5.046-5.046 13.114-5.051-13.109-13.11-5.051 13.115-5.047z" fill="#1e293b"/><path d="m865.469 672.848 5.046 13.114 13.114 5.046-13.114 5.047-5.046 13.114-5.052-13.109-13.109-5.052 13.114-5.046zm-236.58 36.321 5.046 13.114 13.114 5.046-13.114 5.047-5.046 13.114-5.052-13.109-13.109-5.052 13.114-5.046zM300 1158.624l5.046 13.114 13.115 5.046-13.115 5.047-5.046 13.114-5.051-13.11-13.11-5.051 13.115-5.046zm209.414-78.431 5.047 13.114 13.114 5.047-13.114 5.046-5.047 13.114-5.051-13.109-13.109-5.051 13.114-5.047zm111.57-110.856a1.278 1.278 0 0 1-1.193-.818l-15.246-39.567-39.567-15.247a1.276 1.276 0 0 1 0-2.385l39.582-15.23 15.231-39.582a1.279 1.279 0 0 1 2.386 0l15.231 39.582 39.582 15.23a1.277 1.277 0 0 1 0 2.386l-39.582 15.231-15.231 39.581c-.19.493-.664.819-1.193.819zm-51.99-56.824 36.999 14.257c.337.13.604.396.733.732l14.256 36.999 14.243-37.013c.13-.338.396-.604.734-.734l37.012-14.242-37.012-14.241a1.279 1.279 0 0 1-.734-.734l-14.242-37.012-14.242 37.012c-.13.338-.396.604-.734.734z" fill="#fff"/></svg>
