<svg width="1915" height="400" viewBox="0 0 1915 400" fill="none" xmlns="http://www.w3.org/2000/svg">
<path fill-rule="evenodd" clip-rule="evenodd" d="M523.406 252.423C520.369 251.663 517.837 250.904 515.559 249.891C513.875 249.142 512.467 248.255 511.234 247.23C510.415 246.548 510.063 245.475 510.165 244.414C511.386 231.693 510.042 220.473 511.255 207.858C516.318 156.708 548.469 172.914 577.328 164.558C593.9 159.889 610.472 150.699 616.528 132.622C617.519 129.663 616.646 126.445 614.586 124.102C595.681 102.602 574.752 83.6047 552.013 67.324C475.776 13.0326 376.697 -9.51171 285.709 3.67573C282.262 4.17531 280.455 7.99477 282.338 10.9256C293.862 28.8624 309.065 43.5413 326.5 54.3456C329.668 56.309 328.395 60.5504 324.758 59.7348C316.208 57.8172 305.222 54.0776 294.889 46.7845C293.893 46.0817 292.611 45.9047 291.479 46.3562C286.86 48.1986 280.189 50.8554 274.677 53.2355C271.504 54.6056 270.858 58.6986 273.47 60.9629C319.171 100.587 385.655 106.61 437.715 74.9015C440.886 72.9698 445.964 76.9392 444.942 80.5098C443.306 86.2295 441.395 94.0919 439.36 104.8C426.449 170.129 389.236 165.064 343.162 148.606C251.098 115.23 198.869 143.731 152.434 87.3124C149.207 83.3922 143.535 82.0331 139.697 85.3567C130.112 93.658 124.439 105.775 124.439 118.726C124.439 134.067 132.355 147.207 144.089 155.073C145.557 156.057 147.508 155.641 148.603 154.254C151.463 150.634 153.802 148.235 156.714 146.717C159.902 145.056 161.457 149.618 158.766 152.001C148.903 160.736 146.073 171.14 139.628 191.652C129.502 223.81 133.805 256.728 86.4657 265.337C61.4036 266.603 61.9099 283.568 52.7964 308.89C42.2197 339.452 28.3697 352.989 2.73706 379.696C-0.768677 383.349 -1.0693 389.189 2.78346 392.474C13.0224 401.202 23.5819 401.682 34.3163 397.261C60.8973 386.12 81.4026 351.683 100.642 329.4C122.16 304.585 173.803 315.22 212.789 290.912C233.814 278.016 246.447 261.544 242.407 236.869C241.756 232.894 246.303 230.506 247.952 234.18C251.082 241.155 253.134 248.595 253.987 256.283C254.211 258.299 256.012 259.79 258.036 259.676C300.215 257.304 354.759 303.838 405.733 316.428C408.833 317.194 411.038 313.613 409.284 310.942C406.059 306.03 403.318 300.932 401.134 295.723C398.88 290.311 397.171 285.06 395.963 279.992C395.018 276.028 400.808 274.963 402.785 278.527C415.858 302.097 441.984 324.23 478.345 326.868C490.75 327.881 504.42 326.361 518.597 322.057C535.558 316.993 551.253 310.409 569.987 313.954C583.91 316.486 596.821 323.576 604.921 335.477C616.289 352.059 640.284 356.452 653.074 339.122C654.814 336.764 654.96 333.611 653.81 330.915C625.649 264.892 554.142 260.357 523.406 252.423Z" fill="#172940"/>
<path d="M912.702 107.853C913.509 103.409 917.195 100.057 921.695 99.6759L955.903 96.7762C956.79 96.701 957.677 96.9244 958.423 97.4109C959.767 98.2877 960.456 99.8839 960.173 101.464L925.798 293.065C924.944 297.831 920.798 301.299 915.958 301.299H890.084C887.773 301.299 886.019 299.215 886.413 296.937C887.021 293.423 882.653 290.965 879.732 293.01C868.351 300.977 855.829 304.961 842.163 304.961C823.223 304.961 807.553 298.174 795.153 284.6C782.656 271.025 776.408 254.473 776.408 234.941C776.408 209.941 784.121 189.141 799.547 172.539C814.973 155.937 834.597 147.637 858.419 147.637C872.767 147.637 884.89 151.386 894.789 158.884C898.081 161.378 903.266 159.823 904.004 155.759L912.702 107.853ZM854.758 265.85C866.474 265.85 876.091 261.65 883.608 253.252C890.931 244.854 894.592 234.551 894.592 222.344C894.592 211.699 891.614 203.105 885.659 196.562C879.703 190.02 871.893 186.748 862.227 186.748C850.413 186.748 840.845 190.947 833.523 199.346C826.103 207.646 822.393 217.949 822.393 230.254C822.393 240.801 825.419 249.395 831.473 256.035C837.428 262.578 845.19 265.85 854.758 265.85Z" fill="#172940"/>
<path d="M1010.66 127.275C1003.72 127.275 997.72 124.834 992.643 119.951C987.663 115.068 985.174 109.111 985.174 102.08C985.174 93.1934 988.444 85.625 994.986 79.375C1001.33 73.125 1009 70 1017.98 70C1024.81 70 1030.72 72.5391 1035.7 77.6172C1040.68 82.793 1043.17 88.75 1043.17 95.4883C1043.17 104.277 1039.95 111.748 1033.5 117.9C1027.16 124.15 1019.54 127.275 1010.66 127.275ZM1005.84 293.077C1004.98 297.837 1000.84 301.299 996.005 301.299H970.181C963.952 301.299 959.24 295.663 960.341 289.53L983.695 159.53C984.551 154.766 988.695 151.299 993.535 151.299H1019.49C1025.72 151.299 1030.43 156.942 1029.32 163.077L1005.84 293.077Z" fill="#172940"/>
<path d="M1167.72 152.007C1168.86 152.475 1169.74 153.401 1170.19 154.541C1170.67 155.745 1170.64 157.093 1170.1 158.271L1156.43 188.118C1155.97 189.129 1155.18 189.956 1154.19 190.467C1152.68 191.253 1150.88 191.182 1149.34 190.452C1144.6 188.207 1139.41 187.168 1133.75 187.334C1121.45 187.334 1111.98 192.314 1105.34 202.275C1102.9 206.084 1100.26 214.971 1097.43 228.936L1086.28 293.014C1085.44 297.803 1081.29 301.299 1076.43 301.299H1050.37C1044.14 301.299 1039.42 295.663 1040.53 289.53L1063.88 159.53C1064.73 154.766 1068.88 151.299 1073.72 151.299H1095.77C1099.93 151.299 1103.09 155.043 1102.39 159.146C1101.81 162.565 1106.51 164.804 1109.1 162.501C1111.45 160.413 1113.86 158.583 1116.32 157.012C1125.5 150.957 1135.31 147.832 1145.76 147.637C1153.33 147.637 1160.65 149.093 1167.72 152.007Z" fill="#172940"/>
<path d="M1247.62 147.637C1271.54 147.637 1289.55 155.303 1301.66 170.635C1313.76 185.967 1317.62 204.424 1313.23 226.006C1313.03 227.259 1312.76 228.575 1312.4 229.954C1311.37 233.992 1307.54 236.553 1303.37 236.553H1211.39C1206.14 236.553 1201.58 240.659 1202.38 245.847C1203.4 252.456 1206.22 257.806 1210.86 261.895C1217.4 267.754 1225.94 270.684 1236.49 270.684C1251.35 270.684 1264.71 265.492 1276.55 255.108C1277.25 254.486 1278.16 254.131 1279.1 254.131C1280.22 254.131 1281.27 254.621 1281.99 255.472L1296.34 272.444C1297.2 273.465 1297.57 274.812 1297.36 276.13C1297.2 277.066 1296.76 277.933 1296.08 278.594C1278.2 295.98 1256.14 304.769 1229.9 304.961C1207.73 304.961 1189.82 297.93 1176.15 283.867C1162.38 269.902 1156.23 252.031 1157.7 230.254C1158.28 215.312 1162.38 201.738 1170 189.531C1177.42 177.422 1187.47 167.754 1200.17 160.527C1214.62 151.934 1230.43 147.637 1247.62 147.637ZM1212.06 197.235C1208.4 202.863 1213.23 209.453 1219.94 209.453H1261.85C1267.17 209.453 1271.8 205.197 1270.54 200.025C1269.67 196.429 1268.13 193.175 1265.92 190.264C1261.04 183.623 1253.52 180.352 1243.37 180.449C1234.29 180.449 1226.48 183.037 1219.94 188.213C1216.88 190.846 1214.26 193.854 1212.06 197.235Z" fill="#172940"/>
<path d="M1400.59 304.961C1379.11 304.961 1361.58 298.174 1348.01 284.6C1334.34 271.123 1327.51 253.691 1327.51 232.305C1327.51 218.34 1330.58 205.449 1336.73 193.633C1342.88 181.719 1351.48 171.904 1362.51 164.189C1378.52 153.154 1396.34 147.637 1415.96 147.637C1441.83 147.637 1461.68 156.24 1475.5 173.445C1476.29 174.433 1476.54 175.746 1476.21 176.968C1475.98 177.802 1475.5 178.543 1474.82 179.082L1447.93 200.543C1447.24 201.096 1446.38 201.396 1445.5 201.396C1444.24 201.396 1443.07 200.783 1442.29 199.8C1435.37 191.099 1426.05 186.748 1414.35 186.748C1403.03 186.748 1393.65 190.215 1386.23 197.148C1377.64 205.352 1373.35 216.191 1373.35 229.668C1373.35 240.605 1376.47 249.346 1382.72 255.889C1388.87 262.529 1397.12 265.85 1407.47 265.85C1418.19 265.85 1427.71 261.93 1436.03 254.089C1436.79 253.377 1437.78 252.959 1438.82 252.959C1439.93 252.959 1440.99 253.432 1441.73 254.261L1460.73 275.46C1461.59 276.421 1461.96 277.725 1461.74 278.996C1461.59 279.877 1461.16 280.69 1460.51 281.302C1443.73 297.075 1423.75 304.961 1400.59 304.961Z" fill="#172940"/>
<path d="M1600.7 177.163C1599.86 181.943 1595.71 185.43 1590.85 185.43H1564.4C1559.56 185.43 1555.42 188.896 1554.56 193.66L1545.35 244.902C1542.81 258.672 1547.4 265.557 1559.12 265.557C1563.99 265.557 1568.64 264.096 1573.06 261.176C1574.22 260.414 1575.71 260.325 1576.89 261.053C1577.61 261.5 1578.13 262.204 1578.35 263.023L1584.78 286.973C1585.23 288.645 1585.01 290.425 1584.16 291.935C1583.68 292.796 1583.01 293.543 1582.2 294.095C1571.47 301.339 1559.38 304.961 1545.94 304.961C1529.73 304.961 1517.04 300.273 1507.86 290.898C1498.68 281.719 1495.66 267.9 1498.78 249.443L1508.34 197.23C1509.46 191.089 1504.75 185.43 1498.5 185.43H1496.63C1490.42 185.43 1485.71 179.819 1486.79 173.697L1489.27 159.566C1490.11 154.785 1494.27 151.299 1499.12 151.299H1508.42C1513.27 151.299 1517.41 147.823 1518.26 143.051L1523.51 113.589C1524.3 109.133 1527.98 105.766 1532.49 105.378L1566.1 102.491C1566.98 102.414 1567.87 102.637 1568.62 103.123C1569.96 104 1570.65 105.597 1570.36 107.176L1564.48 139.51C1563.37 145.648 1568.08 151.299 1574.32 151.299H1593.34C1599.55 151.299 1604.26 156.91 1603.19 163.032L1600.7 177.163Z" fill="#172940"/>
<path d="M1707.55 239.775L1721.89 159.539C1722.74 154.77 1726.89 151.299 1731.73 151.299H1757.41C1763.63 151.299 1768.34 156.928 1767.25 163.058L1744.02 293.058C1743.17 297.827 1739.02 301.299 1734.18 301.299H1708.77C1706.38 301.299 1704.57 299.134 1704.99 296.777C1705.63 293.178 1701.21 290.634 1698.21 292.715C1686.41 300.879 1673.81 304.961 1660.39 304.961C1642.43 304.961 1628.86 299.053 1619.68 287.236C1610.5 275.42 1607.57 259.697 1610.89 240.068L1625.37 159.529C1626.23 154.765 1630.38 151.299 1635.21 151.299H1661.32C1667.55 151.299 1672.27 156.935 1671.16 163.067L1657.75 237.725C1656.39 246.221 1657.41 253.008 1660.83 258.086C1664.25 263.066 1669.62 265.557 1676.94 265.557C1687.19 265.557 1695.2 261.748 1700.96 254.131C1703.98 250.811 1706.18 246.025 1707.55 239.775Z" fill="#172940"/>
<path d="M1833.13 305.254C1818.29 305.254 1805.11 302.666 1793.59 297.49C1782.49 292.718 1774.49 286.567 1769.6 279.035C1768.99 278.103 1768.8 276.967 1769 275.873C1769.18 274.881 1769.68 273.975 1770.42 273.29L1792.89 252.413C1793.53 251.822 1794.36 251.494 1795.23 251.494C1796.4 251.494 1797.47 252.096 1798.18 253.024C1801.49 257.379 1806.65 261.264 1813.65 264.678C1821.37 268.486 1829.08 270.391 1836.79 270.391C1842.84 270.391 1847.53 269.219 1850.85 266.875C1854.27 264.531 1855.98 261.309 1855.98 257.207C1855.98 254.766 1855.05 252.52 1853.19 250.469C1851.44 248.32 1849.29 246.611 1846.75 245.342C1843.43 243.779 1840.21 242.412 1837.08 241.24C1830.74 239.092 1825.22 236.943 1820.54 234.795C1816.24 232.744 1811.6 230.01 1806.62 226.592C1796.66 219.561 1791.69 209.746 1791.69 197.148C1791.69 182.5 1797.64 170.537 1809.55 161.26C1821.46 151.982 1837.13 147.344 1856.56 147.344C1869.25 147.344 1880.97 149.541 1891.71 153.936C1901.56 158.039 1908.98 163.548 1913.97 170.462C1914.65 171.405 1914.88 172.59 1914.69 173.736C1914.51 174.763 1913.98 175.698 1913.2 176.388L1891.57 195.519C1890.81 196.191 1889.83 196.562 1888.82 196.562C1887.59 196.562 1886.43 196.011 1885.6 195.107C1881.73 190.916 1877.08 187.593 1871.65 185.137C1865.59 182.402 1859.54 181.035 1853.49 181.035C1848.21 181.035 1844.02 182.109 1840.89 184.258C1837.77 186.309 1836.21 189.043 1836.21 192.461C1836.21 194.609 1837.13 196.416 1838.99 197.881C1841.33 199.834 1843.92 201.396 1846.75 202.568C1847.24 202.764 1848.65 203.398 1851 204.473C1853.44 205.449 1855.68 206.328 1857.73 207.109C1860.37 208.184 1862.57 209.062 1864.32 209.746C1876.43 215.215 1885.41 221.367 1891.27 228.203C1897.13 234.941 1900.06 243.389 1900.06 253.545C1900.06 269.365 1893.91 281.914 1881.61 291.191C1869.3 300.566 1853.15 305.254 1833.13 305.254Z" fill="#172940"/>
</svg>
