<svg xmlns="http://www.w3.org/2000/svg" viewBox="0 0 127 26"><defs><linearGradient id="a" x1="19.657%" x2="84.44%" y1="0%" y2="100%"><stop offset="0%" stop-color="#FF9357"/><stop offset="100%" stop-color="#F7CE68"/></linearGradient></defs><g fill="none" fill-rule="evenodd"><path fill="#111" fill-rule="nonzero" d="M30.73 21.018v-8.487h8.06V9.854h-8.06V3.788h8.744V1.082h-11.82v19.936h3.077Zm17.534.37c4.556 0 7.86-3.36 7.86-7.803s-3.247-7.832-7.832-7.832-7.889 3.36-7.889 7.832c0 4.471 3.275 7.803 7.86 7.803Zm0-2.705c-2.791 0-4.814-2.136-4.814-5.098 0-2.933 1.994-5.098 4.814-5.098 2.82 0 4.813 2.136 4.813 5.098 0 2.933-1.994 5.098-4.813 5.098Zm13.26 2.335V13.67c0-2.762 1.453-4.67 3.988-4.67h1.395V6.095h-1.31c-2.107 0-3.531 1.424-3.987 2.62h-.2V6.123h-2.876v14.895h2.99Zm10.613 0v-8.772c0-2.193 1.481-3.702 3.36-3.702 1.88 0 3.219 1.31 3.219 3.39v9.084h2.99v-8.686c0-2.392 1.51-3.788 3.39-3.788 1.965 0 3.132 1.31 3.132 3.73v8.744h2.99V11.25c0-3.219-2.164-5.497-5.439-5.497-2.022 0-3.588.74-4.585 2.506h-.2c-.854-1.51-2.42-2.506-4.556-2.506s-3.532 1.082-4.187 2.335h-.2V6.123h-2.904v14.895h2.99Zm25.45 0v-6.35l2.507-2.934 5.696 9.284h3.674l-7.32-11.705 7.035-8.23h-3.788l-7.633 9.198h-.17V1.082h-3.076v19.936h3.076Zm15.084-17.23c1.168 0 1.994-.77 1.994-1.908 0-1.083-.826-1.88-1.994-1.88-1.139 0-1.965.797-1.965 1.88 0 1.139.826 1.908 1.965 1.908Zm1.481 17.23V6.123h-2.99v14.895h2.99Zm11.723 0v-2.534h-2.022c-1.566 0-2.164-.855-2.164-2.279V8.572h4.329V6.123h-4.33V1.908h-2.819v3.275c0 .598-.37.969-.883.969h-1.965v2.42h2.677v7.719c0 3.104 1.766 4.727 4.7 4.727h2.477Z" class="word-mark"/><path fill="url(#a)" d="M24 21.018v4H12v-4h12Zm-20-4v4H0v-4h4Zm4-4v4H4v-4h4Zm4-4v4H8v-4h4Zm-4-4v4H4v-4h4Zm-4-4v4H0v-4h4Z"/></g></svg>